<svg width="147" height="50" viewBox="0 0 147 50" fill="none" xmlns="http://www.w3.org/2000/svg">
<path d="M62.7098 26.2663C62.7098 33.2063 57.2806 38.3202 50.6178 38.3202C43.955 38.3202 38.5258 33.2063 38.5258 26.2663C38.5258 19.2774 43.955 14.2124 50.6178 14.2124C57.2806 14.2124 62.7098 19.2774 62.7098 26.2663ZM57.4165 26.2663C57.4165 21.9295 54.2699 18.9622 50.6178 18.9622C46.9658 18.9622 43.8191 21.9295 43.8191 26.2663C43.8191 30.5596 46.9658 33.5704 50.6178 33.5704C54.2699 33.5704 57.4165 30.5542 57.4165 26.2663Z" fill="#EA4335"/>
<path d="M88.7959 26.2663C88.7959 33.2063 83.3667 38.3202 76.7039 38.3202C70.0411 38.3202 64.6119 33.2063 64.6119 26.2663C64.6119 19.2828 70.0411 14.2124 76.7039 14.2124C83.3667 14.2124 88.7959 19.2774 88.7959 26.2663ZM83.5026 26.2663C83.5026 21.9295 80.3559 18.9622 76.7039 18.9622C73.0518 18.9622 69.9052 21.9295 69.9052 26.2663C69.9052 30.5596 73.0518 33.5704 76.7039 33.5704C80.3559 33.5704 83.5026 30.5542 83.5026 26.2663Z" fill="#FBBC05"/>
<path d="M113.795 14.9406V36.5812C113.795 45.483 108.545 49.1188 102.339 49.1188C96.4967 49.1188 92.9805 45.2113 91.6545 42.0158L96.263 40.0973C97.0836 42.0592 99.0944 44.3744 102.333 44.3744C106.306 44.3744 108.768 41.9234 108.768 37.3094V35.5758H108.583C107.398 37.0377 105.116 38.3148 102.236 38.3148C96.2086 38.3148 90.6871 33.065 90.6871 26.3098C90.6871 19.5056 96.2086 14.2124 102.236 14.2124C105.111 14.2124 107.393 15.4895 108.583 16.9079H108.768V14.946H113.795V14.9406ZM109.143 26.3098C109.143 22.0653 106.312 18.9622 102.708 18.9622C99.0564 18.9622 95.9967 22.0653 95.9967 26.3098C95.9967 30.5107 99.0564 33.5704 102.708 33.5704C106.312 33.5704 109.143 30.5107 109.143 26.3098Z" fill="#4285F4"/>
<path d="M122.083 2.25624V37.5811H116.92V2.25624H122.083Z" fill="#34A853"/>
<path d="M142.202 30.2335L146.31 32.9726C144.984 34.9345 141.789 38.3148 136.267 38.3148C129.419 38.3148 124.306 33.0215 124.306 26.2609C124.306 19.0926 129.463 14.2069 135.675 14.2069C141.93 14.2069 144.99 19.185 145.99 21.8751L146.538 23.2447L130.425 29.9183C131.659 32.3367 133.577 33.5704 136.267 33.5704C138.963 33.5704 140.832 32.2443 142.202 30.2335ZM129.555 25.8967L140.327 21.4241C139.734 19.9187 137.952 18.8698 135.854 18.8698C133.164 18.8698 129.419 21.2447 129.555 25.8967Z" fill="#EA4335"/>
<path d="M18.983 23.1305V18.0166H36.2162C36.3846 18.9078 36.4716 19.9622 36.4716 21.1034C36.4716 24.9402 35.4227 29.6846 32.0424 33.065C28.7545 36.4888 24.5535 38.3148 18.9885 38.3148C8.67362 38.3148 0 29.9129 0 19.598C0 9.28317 8.67362 0.881287 18.9885 0.881287C24.6948 0.881287 28.7599 3.12034 31.8141 6.03872L28.2056 9.64729C26.0154 7.59301 23.0481 5.99524 18.983 5.99524C11.4507 5.99524 5.55959 12.0657 5.55959 19.598C5.55959 27.1304 11.4507 33.2008 18.983 33.2008C23.8687 33.2008 26.6513 31.2389 28.4338 29.4564C29.8794 28.0108 30.8305 25.9456 31.2055 23.1251L18.983 23.1305Z" fill="#4285F4"/>
</svg>
