<svg width="181" height="76" viewBox="0 0 181 76" fill="none" xmlns="http://www.w3.org/2000/svg">
<g clip-path="url(#clip0_395_2185)">
<path d="M24.1348 27.9909H0.538574V51.5656H24.1348V27.9909Z" fill="#985199"/>
<path d="M53.9353 50.5494H28.7117V75.75H53.9353V50.5494Z" fill="#E8992B"/>
<path d="M35.4244 37.0347H27.9998V44.4526H35.4244V37.0347Z" fill="#682369"/>
<path d="M55.3593 25.9586H38.8826V42.4203H55.3593V25.9586Z" fill="#C0D23C"/>
<path d="M53.7318 10.2083H41.2217V22.7069H53.7318V10.2083Z" fill="#AE1A3C"/>
<path d="M59.2241 0.25H50.884V8.58244H59.2241V0.25Z" fill="#6DC9F3"/>
<path d="M66.0386 9.7002H58.207V17.5246H66.0386V9.7002Z" fill="#00B2B8"/>
</g>
<path d="M83.6186 35V21H86.0186V26.88H92.9786V21H95.3786V35H92.9786V29.02H86.0186V35H83.6186ZM102.62 35.2C101.66 35.2 100.794 34.9733 100.02 34.52C99.2471 34.0533 98.6338 33.4333 98.1804 32.66C97.7271 31.8733 97.5004 30.9867 97.5004 30C97.5004 29.0133 97.7138 28.1333 98.1404 27.36C98.5671 26.5867 99.1471 25.9733 99.8804 25.52C100.627 25.0533 101.454 24.82 102.36 24.82C103.294 24.82 104.114 25.0467 104.82 25.5C105.54 25.9533 106.1 26.5667 106.5 27.34C106.914 28.1133 107.12 29 107.12 30V30.54H99.7204C99.8004 31.0867 99.9738 31.5733 100.24 32C100.52 32.4133 100.874 32.74 101.3 32.98C101.74 33.22 102.214 33.34 102.72 33.34C103.187 33.34 103.627 33.26 104.04 33.1C104.467 32.9267 104.82 32.6933 105.1 32.4L106.58 33.74C105.967 34.2467 105.34 34.62 104.7 34.86C104.074 35.0867 103.38 35.2 102.62 35.2ZM99.7404 29.14H104.98C104.9 28.66 104.734 28.2333 104.48 27.86C104.24 27.4867 103.934 27.1933 103.56 26.98C103.2 26.7667 102.8 26.66 102.36 26.66C101.92 26.66 101.514 26.7667 101.14 26.98C100.78 27.18 100.48 27.4667 100.24 27.84C100 28.2133 99.8338 28.6467 99.7404 29.14ZM100.88 23.16L103.36 20.5H106.18L102.86 23.16H100.88ZM109.025 35V24.98H111.285V27.14C111.579 26.38 111.959 25.8 112.425 25.4C112.892 25 113.432 24.8 114.045 24.8C114.232 24.8133 114.399 24.8333 114.545 24.86C114.692 24.8733 114.852 24.92 115.025 25V26.98C114.852 26.9 114.652 26.84 114.425 26.8C114.212 26.76 113.999 26.74 113.785 26.74C113.239 26.74 112.745 26.8867 112.305 27.18C111.879 27.4733 111.539 27.88 111.285 28.4V35H109.025ZM120.588 35.18C119.641 35.18 118.781 34.9533 118.008 34.5C117.248 34.0467 116.648 33.4333 116.208 32.66C115.768 31.8733 115.548 30.9867 115.548 30C115.548 29.0133 115.768 28.1333 116.208 27.36C116.648 26.5733 117.248 25.9533 118.008 25.5C118.768 25.0467 119.628 24.82 120.588 24.82C121.548 24.82 122.401 25.0467 123.148 25.5C123.908 25.9533 124.508 26.5733 124.948 27.36C125.388 28.1333 125.608 29.0133 125.608 30C125.608 30.9867 125.388 31.8733 124.948 32.66C124.508 33.4333 123.908 34.0467 123.148 34.5C122.401 34.9533 121.548 35.18 120.588 35.18ZM120.588 33.26C121.135 33.26 121.615 33.12 122.028 32.84C122.455 32.56 122.788 32.1733 123.028 31.68C123.268 31.1733 123.388 30.6133 123.388 30C123.388 29.3733 123.268 28.82 123.028 28.34C122.788 27.8467 122.455 27.46 122.028 27.18C121.615 26.8867 121.135 26.74 120.588 26.74C120.041 26.74 119.555 26.8867 119.128 27.18C118.701 27.46 118.368 27.8467 118.128 28.34C117.888 28.82 117.768 29.3733 117.768 30C117.768 30.6267 117.888 31.1867 118.128 31.68C118.368 32.1733 118.701 32.56 119.128 32.84C119.555 33.12 120.041 33.26 120.588 33.26ZM130.962 35.16C130.268 35.16 129.662 35.0067 129.142 34.7C128.622 34.3933 128.208 33.9733 127.902 33.44C127.608 32.9067 127.462 32.2867 127.462 31.58V24.98H129.742V30.92C129.742 31.6667 129.935 32.26 130.322 32.7C130.722 33.1267 131.262 33.34 131.942 33.34C132.395 33.34 132.802 33.24 133.162 33.04C133.535 32.84 133.855 32.54 134.122 32.14V24.98H136.382V35H134.122V33.38C133.735 33.9667 133.275 34.4133 132.742 34.72C132.208 35.0133 131.615 35.16 130.962 35.16ZM141.682 35L137.602 24.98H140.062L142.862 32.26L145.642 24.98H148.002L143.882 35H141.682ZM149.202 35V24.98H151.462V35H149.202ZM150.342 22.94C149.955 22.94 149.622 22.8067 149.342 22.54C149.075 22.26 148.942 21.9333 148.942 21.56C148.942 21.1733 149.075 20.8467 149.342 20.58C149.622 20.3 149.955 20.16 150.342 20.16C150.729 20.16 151.055 20.3 151.322 20.58C151.602 20.8467 151.742 21.1667 151.742 21.54C151.742 21.9267 151.602 22.26 151.322 22.54C151.055 22.8067 150.729 22.94 150.342 22.94ZM153.861 35V20.66L156.121 20.26V35H153.861ZM158.5 35V20.66L160.76 20.26V35H158.5ZM167.799 35.2C166.839 35.2 165.973 34.9733 165.199 34.52C164.426 34.0533 163.813 33.4333 163.359 32.66C162.906 31.8733 162.679 30.9867 162.679 30C162.679 29.0133 162.893 28.1333 163.319 27.36C163.746 26.5867 164.326 25.9733 165.059 25.52C165.806 25.0533 166.633 24.82 167.539 24.82C168.473 24.82 169.293 25.0467 169.999 25.5C170.719 25.9533 171.279 26.5667 171.679 27.34C172.093 28.1133 172.299 29 172.299 30V30.54H164.899C164.979 31.0867 165.153 31.5733 165.419 32C165.699 32.4133 166.053 32.74 166.479 32.98C166.919 33.22 167.393 33.34 167.899 33.34C168.366 33.34 168.806 33.26 169.219 33.1C169.646 32.9267 169.999 32.6933 170.279 32.4L171.759 33.74C171.146 34.2467 170.519 34.62 169.879 34.86C169.253 35.0867 168.559 35.2 167.799 35.2ZM164.919 29.14H170.159C170.079 28.66 169.913 28.2333 169.659 27.86C169.419 27.4867 169.113 27.1933 168.739 26.98C168.379 26.7667 167.979 26.66 167.539 26.66C167.099 26.66 166.693 26.7667 166.319 26.98C165.959 27.18 165.659 27.4667 165.419 27.84C165.179 28.2133 165.013 28.6467 164.919 29.14ZM88.3986 55.22C87.3052 55.22 86.2719 55.0333 85.2986 54.66C84.3386 54.2733 83.4119 53.7067 82.5186 52.96L83.8186 51.2C84.7252 51.9333 85.5319 52.46 86.2386 52.78C86.9586 53.0867 87.7252 53.24 88.5386 53.24C89.1519 53.24 89.6919 53.1467 90.1586 52.96C90.6386 52.76 91.0052 52.4933 91.2586 52.16C91.5252 51.8267 91.6586 51.44 91.6586 51C91.6586 50.4267 91.4652 49.9933 91.0786 49.7C90.7052 49.3933 90.0519 49.16 89.1186 49L86.5386 48.56C85.3252 48.3467 84.4186 47.94 83.8186 47.34C83.2319 46.7267 82.9386 45.9467 82.9386 45C82.9386 44.16 83.1519 43.4267 83.5786 42.8C84.0052 42.16 84.5986 41.6667 85.3586 41.32C86.1319 40.96 87.0452 40.78 88.0986 40.78C89.1519 40.78 90.1519 40.9333 91.0986 41.24C92.0452 41.5467 92.9186 41.9933 93.7186 42.58L92.4986 44.38C91.7919 43.8467 91.0652 43.4467 90.3186 43.18C89.5719 42.9 88.8052 42.76 88.0186 42.76C87.4586 42.76 86.9652 42.8467 86.5386 43.02C86.1252 43.1933 85.7986 43.4333 85.5586 43.74C85.3319 44.0467 85.2186 44.3867 85.2186 44.76C85.2186 45.2667 85.3852 45.66 85.7186 45.94C86.0652 46.2067 86.6186 46.4067 87.3786 46.54L89.8786 46.96C91.2919 47.2133 92.3319 47.6533 92.9986 48.28C93.6786 48.9067 94.0186 49.7533 94.0186 50.82C94.0186 51.6733 93.7786 52.4333 93.2986 53.1C92.8319 53.7667 92.1786 54.2867 91.3386 54.66C90.4986 55.0333 89.5186 55.22 88.3986 55.22ZM99.1059 55.18C98.4126 55.18 97.7926 55.0533 97.2459 54.8C96.7126 54.5333 96.2926 54.1733 95.9859 53.72C95.6926 53.2533 95.5459 52.72 95.5459 52.12C95.5459 51.52 95.6993 51 96.0059 50.56C96.3259 50.12 96.7726 49.78 97.3459 49.54C97.9193 49.3 98.5993 49.18 99.3859 49.18C99.8526 49.18 100.313 49.2333 100.766 49.34C101.219 49.4333 101.659 49.5933 102.086 49.82V48.7C102.086 48.0333 101.893 47.5333 101.506 47.2C101.133 46.8667 100.559 46.7 99.7859 46.7C99.3726 46.7 98.9259 46.7667 98.4459 46.9C97.9793 47.02 97.4526 47.2133 96.8659 47.48L96.0659 45.84C97.5326 45.16 98.9193 44.82 100.226 44.82C101.533 44.82 102.539 45.14 103.246 45.78C103.966 46.4067 104.326 47.3 104.326 48.46V55H102.086V53.96C101.659 54.3733 101.199 54.68 100.706 54.88C100.213 55.08 99.6793 55.18 99.1059 55.18ZM97.6659 52.08C97.6659 52.5467 97.8526 52.9133 98.2259 53.18C98.5993 53.4467 99.0993 53.58 99.7259 53.58C100.179 53.58 100.599 53.5133 100.986 53.38C101.386 53.2333 101.753 53.02 102.086 52.74V51.12C101.739 50.96 101.379 50.84 101.006 50.76C100.633 50.68 100.226 50.64 99.7859 50.64C99.1326 50.64 98.6126 50.7667 98.2259 51.02C97.8526 51.2733 97.6659 51.6267 97.6659 52.08ZM106.642 55V44.98H108.902V55H106.642ZM107.782 42.94C107.395 42.94 107.062 42.8067 106.782 42.54C106.515 42.26 106.382 41.9333 106.382 41.56C106.382 41.1733 106.515 40.8467 106.782 40.58C107.062 40.3 107.395 40.16 107.782 40.16C108.169 40.16 108.495 40.3 108.762 40.58C109.042 40.8467 109.182 41.1667 109.182 41.54C109.182 41.9267 109.042 42.26 108.762 42.54C108.495 42.8067 108.169 42.94 107.782 42.94ZM111.301 55V44.98H113.561V46.62C113.948 46.02 114.408 45.5733 114.941 45.28C115.474 44.9733 116.068 44.82 116.721 44.82C117.414 44.82 118.021 44.9733 118.541 45.28C119.061 45.5733 119.468 45.9867 119.761 46.52C120.068 47.0533 120.221 47.68 120.221 48.4V55H117.941V49.04C117.941 48.3067 117.741 47.7267 117.341 47.3C116.941 46.86 116.408 46.64 115.741 46.64C115.288 46.64 114.874 46.7467 114.501 46.96C114.141 47.16 113.828 47.46 113.561 47.86V55H111.301ZM126.569 55.2C125.555 55.2 124.789 54.9667 124.269 54.5C123.749 54.02 123.489 53.32 123.489 52.4V46.78H121.489V44.98H123.489V42.22L125.749 41.74V44.98H128.529V46.78H125.749V51.9C125.749 52.3933 125.855 52.7467 126.069 52.96C126.282 53.16 126.642 53.26 127.149 53.26C127.375 53.26 127.582 53.2467 127.769 53.22C127.969 53.18 128.215 53.1133 128.509 53.02V54.92C128.229 55.0133 127.909 55.08 127.549 55.12C127.202 55.1733 126.875 55.2 126.569 55.2ZM129.752 50.28V48.36H136.732V50.28H129.752ZM145.926 55.22C144.913 55.22 143.966 55.04 143.086 54.68C142.206 54.3067 141.433 53.7933 140.766 53.14C140.113 52.4733 139.599 51.7067 139.226 50.84C138.866 49.96 138.686 49.0133 138.686 48C138.686 46.9867 138.866 46.0467 139.226 45.18C139.599 44.3 140.113 43.5333 140.766 42.88C141.433 42.2133 142.206 41.7 143.086 41.34C143.966 40.9667 144.913 40.78 145.926 40.78C146.646 40.78 147.339 40.88 148.006 41.08C148.673 41.28 149.293 41.5667 149.866 41.94C150.453 42.3 150.959 42.7467 151.386 43.28L149.786 44.84C149.293 44.2133 148.713 43.74 148.046 43.42C147.379 43.1 146.673 42.94 145.926 42.94C145.246 42.94 144.613 43.0667 144.026 43.32C143.453 43.5733 142.946 43.9333 142.506 44.4C142.079 44.8533 141.746 45.3867 141.506 46C141.266 46.6133 141.146 47.28 141.146 48C141.146 48.72 141.266 49.3867 141.506 50C141.746 50.6133 142.079 51.1533 142.506 51.62C142.946 52.0733 143.453 52.4267 144.026 52.68C144.613 52.9333 145.246 53.06 145.926 53.06C146.673 53.06 147.379 52.9 148.046 52.58C148.713 52.2467 149.293 51.7733 149.786 51.16L151.386 52.72C150.959 53.24 150.453 53.6867 149.866 54.06C149.293 54.4333 148.673 54.72 148.006 54.92C147.339 55.12 146.646 55.22 145.926 55.22ZM153.119 55V40.66L155.379 40.26V55H153.119ZM160.798 55.18C160.105 55.18 159.485 55.0533 158.938 54.8C158.405 54.5333 157.985 54.1733 157.678 53.72C157.385 53.2533 157.238 52.72 157.238 52.12C157.238 51.52 157.391 51 157.698 50.56C158.018 50.12 158.465 49.78 159.038 49.54C159.611 49.3 160.291 49.18 161.078 49.18C161.545 49.18 162.005 49.2333 162.458 49.34C162.911 49.4333 163.351 49.5933 163.778 49.82V48.7C163.778 48.0333 163.585 47.5333 163.198 47.2C162.825 46.8667 162.251 46.7 161.478 46.7C161.065 46.7 160.618 46.7667 160.138 46.9C159.671 47.02 159.145 47.2133 158.558 47.48L157.758 45.84C159.225 45.16 160.611 44.82 161.918 44.82C163.225 44.82 164.231 45.14 164.938 45.78C165.658 46.4067 166.018 47.3 166.018 48.46V55H163.778V53.96C163.351 54.3733 162.891 54.68 162.398 54.88C161.905 55.08 161.371 55.18 160.798 55.18ZM159.358 52.08C159.358 52.5467 159.545 52.9133 159.918 53.18C160.291 53.4467 160.791 53.58 161.418 53.58C161.871 53.58 162.291 53.5133 162.678 53.38C163.078 53.2333 163.445 53.02 163.778 52.74V51.12C163.431 50.96 163.071 50.84 162.698 50.76C162.325 50.68 161.918 50.64 161.478 50.64C160.825 50.64 160.305 50.7667 159.918 51.02C159.545 51.2733 159.358 51.6267 159.358 52.08ZM168.334 55V44.98H170.594V55H168.334ZM169.474 42.94C169.088 42.94 168.754 42.8067 168.474 42.54C168.208 42.26 168.074 41.9333 168.074 41.56C168.074 41.1733 168.208 40.8467 168.474 40.58C168.754 40.3 169.088 40.16 169.474 40.16C169.861 40.16 170.188 40.3 170.454 40.58C170.734 40.8467 170.874 41.1667 170.874 41.54C170.874 41.9267 170.734 42.26 170.454 42.54C170.188 42.8067 169.861 42.94 169.474 42.94ZM172.993 55V44.98H175.253V47.14C175.547 46.38 175.927 45.8 176.393 45.4C176.86 45 177.4 44.8 178.013 44.8C178.2 44.8133 178.367 44.8333 178.513 44.86C178.66 44.8733 178.82 44.92 178.993 45V46.98C178.82 46.9 178.62 46.84 178.393 46.8C178.18 46.76 177.967 46.74 177.753 46.74C177.207 46.74 176.713 46.8867 176.273 47.18C175.847 47.4733 175.507 47.88 175.253 48.4V55H172.993Z" fill="#115E8A"/>
<defs>
<clipPath id="clip0_395_2185">
<rect width="65.5" height="75.5" fill="white" transform="translate(0.538574 0.25)"/>
</clipPath>
</defs>
</svg>
